# xmcd
#
# Track frame offsets: 
#        150
#        23079
#        41846
#        63576
#        87522
#        104645
#        127635
#        145881
#        162755
#        182043
#        198044
#        216637
#        236862
#        253610
#        272239
#
# Disc length: 3783 seconds
#
# Revision: 0
# Processed by: cddbd v1.4PL0 Copyright (c) Steve Scherf et al.
# Submitted via: ExactAudioCopy v0.95a3
#
DISCID=df0ec50f
DTITLE=Александр Новиков - Легенды русского шансона (т.21)
DYEAR=2003
DGENRE=Chanson
TTITLE0=Вези меня, извозчик
TTITLE1=Город древний
TTITLE2=Гостиничная история
TTITLE3=Улица Восточная
TTITLE4=Помнишь, девочка?
TTITLE5=Катилась по асфальту
TTITLE6=Вы уезжаете
TTITLE7=Ожерелье Магадана
TTITLE8=На прощанье
TTITLE9=Записки
TTITLE10=Воробьи
TTITLE11=Шансоньетка
TTITLE12=Уличная красотка
TTITLE13=Когда мне было 20 лет
TTITLE14=С красавицей в обнимку
EXTD=
EXTT0=
EXTT1=
EXTT2=
EXTT3=
EXTT4=
EXTT5=
EXTT6=
EXTT7=
EXTT8=
EXTT9=
EXTT10=
EXTT11=
EXTT12=
EXTT13=
EXTT14=
PLAYORDER=
